HIERARCHY
ROOT RootJoint
{
    OFFSET   0.000000   0.000000   0.000000
    CHANNELS 6 Xposition Yposition Zposition Xrotation Yrotation Zrotation
    JOINT pelvis_lowerback
    {
        OFFSET   0.000000   0.093605   0.000000
        CHANNELS 3 Xrotation Yrotation Zrotation
        JOINT lowerback_torso
        {
            OFFSET   0.000000   0.100000   0.000000
            CHANNELS 3 Xrotation Yrotation Zrotation
            JOINT torso_head
            {
                OFFSET   0.000000   0.282350   0.000000
                CHANNELS 3 Xrotation Yrotation Zrotation
                End Site
                {
                    OFFSET   0.000000   0.192650   0.000000
                }
            }
            JOINT rTorso_Clavicle
            {
                OFFSET  -0.001000   0.157500   0.000000
                CHANNELS 3 Xrotation Yrotation Zrotation
                JOINT rShoulder
                {
                    OFFSET  -0.117647   0.000000   0.000000
                    CHANNELS 3 Xrotation Yrotation Zrotation
                    JOINT rElbow
                    {
                        OFFSET  -0.245000   0.000000   0.000000
                        CHANNELS 3 Xrotation Yrotation Zrotation
                        JOINT rWrist
                        {
                            OFFSET  -0.240000   0.000000   0.000000
                            CHANNELS 3 Xrotation Yrotation Zrotation
                            End Site
                            {
                                OFFSET  -0.116353  -0.002500   0.000000
                            }
                        }
                    }
                }
            }
            JOINT lTorso_Clavicle
            {
                OFFSET   0.001000   0.157500   0.000000
                CHANNELS 3 Xrotation Yrotation Zrotation
                JOINT lShoulder
                {
                    OFFSET   0.117647   0.000000   0.000000
                    CHANNELS 3 Xrotation Yrotation Zrotation
                    JOINT lElbow
                    {
                        OFFSET   0.245000   0.000000   0.000000
                        CHANNELS 3 Xrotation Yrotation Zrotation
                        JOINT lWrist
                        {
                            OFFSET   0.240000   0.000000   0.000000
                            CHANNELS 3 Xrotation Yrotation Zrotation
                            End Site
                            {
                                OFFSET   0.116353  -0.002500   0.000000
                            }
                        }
                    }
                }
            }
        }
    }
    JOINT rHip
    {
        OFFSET  -0.100000  -0.051395   0.000000
        CHANNELS 3 Xrotation Yrotation Zrotation
        JOINT rKnee
        {
            OFFSET   0.000000  -0.410000   0.000000
            CHANNELS 3 Xrotation Yrotation Zrotation
            JOINT rAnkle
            {
                OFFSET   0.000000  -0.390000   0.000000
                CHANNELS 3 Xrotation Yrotation Zrotation
                JOINT rToeJoint
                {
                    OFFSET   0.000000  -0.050000   0.130000
                    CHANNELS 3 Xrotation Yrotation Zrotation
                    End Site
                    {
                        OFFSET  -0.010000   0.002000   0.060000
                    }
                }
            }
        }
    }
    JOINT lHip
    {
        OFFSET   0.100000  -0.051395   0.000000
        CHANNELS 3 Xrotation Yrotation Zrotation
        JOINT lKnee
        {
            OFFSET   0.000000  -0.410000   0.000000
            CHANNELS 3 Xrotation Yrotation Zrotation
            JOINT lAnkle
            {
                OFFSET   0.000000  -0.390000   0.000000
                CHANNELS 3 Xrotation Yrotation Zrotation
                JOINT lToeJoint
                {
                    OFFSET   0.000000  -0.050000   0.130000
                    CHANNELS 3 Xrotation Yrotation Zrotation
                    End Site
                    {
                        OFFSET   0.010000   0.002000   0.060000
                    }
                }
            }
        }
    }
}
MOTION
Frames: 12
Frame Time:   0.008333
 -1.086217   0.898031   5.370563 -161.842767  18.698715 172.233784  11.634862  -0.176834   0.565136   2.758214  -1.030675   1.228617  -0.687587   0.230501  -0.633044   6.035952  -1.957347   5.131881  16.476060   7.852921  47.197936  -0.002760  28.671473   0.000182   5.244804  -0.323619  -8.924714   3.486258  -1.668133  -4.091640   8.510894  -9.269863 -51.371108  -0.020446 -40.799844   0.000287   5.117788  -5.564035   7.305356   2.658712  -1.819508   3.477083  23.779081  -0.000598  -0.004666  -9.730263  -7.835372  -3.170321   0.091246   0.002927   0.000859  -1.092060   1.896835   0.699426  73.365065  -0.004218  -0.018240   2.826426   9.660568   0.956851 -10.995167  -0.005996   0.015089
 -1.081374   0.899256   5.356189 -161.593382  19.242673 172.211962  11.812298   0.243764   0.465381   2.648400  -0.895706   1.251608  -0.652374   0.263693  -0.608658   5.671945  -1.447427   5.054710  15.412613   8.487753  46.885387  -0.006979  29.452708   0.000989   5.215028  -0.624740  -9.048116   3.640016  -1.608804  -4.135513   9.249481  -9.223565 -51.632710  -0.024561 -39.388617  -0.005888   5.141042  -5.578231   7.415803   3.882454  -1.721538   3.263713  23.795076  -0.000482  -0.003810 -10.714113  -7.543899  -3.361451   0.002307   0.002166   0.000891  -2.730482   2.134743   0.498485  73.392068  -0.003496  -0.014650   1.271053  10.257627   1.228093 -10.406548  -0.004639   0.014059
 -1.076677   0.900265   5.342109 -161.387561  19.792175 172.214964  12.025582   0.651080   0.373630   2.554746  -0.743774   1.261258  -0.610642   0.286624  -0.584894   5.244412  -0.899401   4.958996  14.340475   9.152635  46.589398  -0.010291  30.244965   0.001198   5.225584  -0.608360  -9.261146   3.819017  -1.556397  -4.181145   9.972099  -9.177169 -51.893456  -0.027766 -38.048704  -0.011091   5.160124  -5.474851   7.393592   5.059436  -1.622987   3.012614  23.762491  -0.000360  -0.002894 -11.667164  -7.240943  -3.528436  -0.059137   0.001613   0.000844  -4.433987   2.319139   0.372187  73.045530  -0.001816  -0.010933  -0.207006  10.807250   1.499862  -9.892942  -0.003451   0.013049
 -1.072056   0.901001   5.328198 -161.197786  20.282137 172.235533  12.273651   1.052839   0.288571   2.489527  -0.571697   1.265813  -0.564593   0.304970  -0.561045   4.803255  -0.343225   4.859201  13.303976   9.807730  46.309734  -0.012358  31.006033   0.000511   5.257898  -0.445709  -9.526171   3.994326  -1.509849  -4.229085  10.653674  -9.137323 -52.144598  -0.029303 -36.794395  -0.014044   5.176670  -5.337182   7.309017   6.222174  -1.480485   2.757652  23.714390  -0.000268  -0.002134 -12.615423  -6.891418  -3.673770  -0.099604   0.001215   0.000704  -6.175471   2.451290   0.321678  72.573469  -0.000052  -0.007948  -1.598241  11.313512   1.767451  -9.426212  -0.002371   0.012233
 -1.067494   0.901464   5.314351 -161.017772  20.711317 172.276224  12.539251   1.456249   0.207607   2.450743  -0.381659   1.263551  -0.515162   0.321658  -0.537978   4.370342   0.201600   4.756743  12.319297  10.437664  46.046718  -0.013341  31.726086  -0.000750   5.300906  -0.225720  -9.816509   4.163984  -1.462890  -4.278925  11.294934  -9.101076 -52.383860  -0.029446 -35.621894  -0.015024   5.192045  -5.191950   7.203124   7.381545  -1.326643   2.488134  23.664466  -0.000207  -0.001554 -13.575713  -6.545232  -3.804119  -0.122384   0.000930   0.000563  -7.919538   2.550773   0.324989  72.057423   0.001448  -0.005755  -2.904733  11.779999   2.028368  -9.002485  -0.001404   0.011534
 -1.062984   0.901662   5.300506 -160.849215  21.104328 172.333618  12.807170   1.866456   0.130864   2.430893  -0.173183   1.254646  -0.464540   0.337885  -0.515983   3.954101   0.726577   4.652093  11.390772  11.037003  45.800071  -0.013494  32.403171  -0.002207   5.349441   0.014694 -10.118465   4.331485  -1.409309  -4.329851  11.901357  -9.064533 -52.611329  -0.028633 -34.524849  -0.014658   5.205556  -5.040760   7.091803   8.536381  -1.187857   2.195117  23.614299  -0.000168  -0.001100 -14.550600  -6.231226  -3.919988  -0.130732   0.000729   0.000451  -9.640211   2.631272   0.366535  71.531530   0.002653  -0.004174  -4.130326  12.210003   2.281146  -8.618487  -0.000610   0.010844
 -1.058518   0.901602   5.286637 -160.697659  21.473142 172.406449  13.067647   2.279282   0.057262   2.422816   0.049322   1.241010  -0.414721   0.353806  -0.494948   3.558032   1.227541   4.547645  10.518304  11.604365  45.570677  -0.013044  33.038210  -0.003610   5.400962   0.260832 -10.423901   4.498569  -1.347092  -4.379957  12.476820  -9.025772 -52.826736  -0.027219 -33.497494  -0.013502   5.216611  -4.880921   6.980486   9.682689  -1.062074   1.880954  23.560220  -0.000144  -0.000736 -15.535840  -5.941133  -4.020430  -0.127972   0.000588   0.000361 -11.321974   2.695957   0.435588  71.013572   0.003592  -0.003037  -5.279290  12.606647   2.525037  -8.270869  -0.000001   0.010122
 -1.054073   0.901679   5.272383 -160.512985  22.010827 172.571880  13.203648   2.637236  -0.076171   2.542044   0.273871   1.161468  -0.301790   0.425351  -0.547240   3.287268   1.714990   4.386574   9.669301  12.300381  45.264423  -0.016086  34.561998  -0.007563   5.330816   0.032506 -10.535261   4.696095  -1.267230  -4.442373  13.357932  -9.100337 -52.951359  -0.027363 -32.520692  -0.016703   5.219273  -4.757688   6.924069  10.893929  -0.903425   1.364844  23.406689  -0.000163  -0.000015 -16.457127  -5.540100  -3.945538  -0.147144   0.000457   0.000288 -12.328677   3.047472   0.455190  68.381420   0.008606  -0.002143  -6.227095  13.113120   2.680156  -7.949688   0.001668   0.010276
 -1.049633   0.901385   5.258284 -160.444678  22.461442 172.719407  13.289675   2.940668  -0.133069   2.615961   0.483006   1.100190  -0.193499   0.486549  -0.594640   2.984565   2.198787   4.182040   8.832011  12.993915  44.966506  -0.018604  36.042121  -0.010552   5.318120   0.138768 -10.697245   4.907226  -1.185815  -4.485625  14.204683  -9.166577 -53.077589  -0.026583 -31.603760  -0.018434   5.232083  -4.620467   6.770247  12.004656  -0.802940   0.924485  23.246382  -0.000199   0.000524 -17.364320  -5.187407  -3.858142  -0.174640   0.000348   0.000231 -13.300831   3.357946   0.560033  65.331777   0.012194  -0.002503  -7.131159  13.578203   2.831624  -7.600048   0.003580   0.010716
 -1.045175   0.900701   5.244291 -160.432977  22.831688 172.842283  13.367420   3.233199  -0.149316   2.667350   0.692680   1.062406  -0.093551   0.541600  -0.633570   2.673522   2.674855   3.964679   8.028267  13.659741  44.674895  -0.019836  37.437831  -0.013443   5.327656   0.356642 -10.918379   5.105796  -1.110211  -4.514823  14.997153  -9.228053 -53.190266  -0.025052 -30.747595  -0.018660   5.245755  -4.481909   6.604732  13.063315  -0.746108   0.547723  23.104866  -0.000233   0.000838 -18.275407  -4.882231  -3.760890  -0.212878   0.000256   0.000184 -14.263752   3.631755   0.713556  62.292182   0.013888  -0.003377  -7.983588  14.008407   2.978469  -7.267466   0.005180   0.010931
 -1.040690   0.899687   5.230329 -160.451969  23.139127 172.946916  13.440743   3.525119  -0.145409   2.709607   0.907048   1.039950   0.000492   0.592932  -0.666627   2.367130   3.136164   3.750088   7.265608  14.292858  44.397473  -0.019793  38.746432  -0.016180   5.346793   0.607647 -11.171339   5.291196  -1.037384  -4.533842  15.737838  -9.283387 -53.287742  -0.023148 -29.947804  -0.017839   5.258672  -4.344065   6.457438  14.091189  -0.721017   0.215224  22.989996  -0.000257   0.000975 -19.177310  -4.616663  -3.657236  -0.293266   0.000161   0.000146 -15.208545   3.880194   0.885841  59.389655   0.014112  -0.004280  -8.783950  14.407607   3.120045  -6.962670   0.006339   0.010835
 -1.036174   0.898402   5.216349 -160.491615  23.409431 173.037116  13.506822   3.820776  -0.131910   2.746294   1.128074   1.026253   0.089032   0.641476  -0.695995   2.071831   3.579227   3.546457   6.545956  14.892968  44.139901  -0.018753  39.971225  -0.018530   5.371078   0.868337 -11.433670   5.467400  -0.963331  -4.546401  16.432683  -9.331177 -53.373155  -0.021156 -29.199577  -0.016428   5.269910  -4.203644   6.331302  15.093769  -0.728941  -0.086181  22.903715  -0.000259   0.001001 -20.052608  -4.394301  -3.550022  -0.445445   0.000045   0.000152 -16.126138   4.110877   1.061537  56.659494   0.013514  -0.004834  -9.534208  14.778536   3.256030  -6.687317   0.007060   0.010450
